<svg width="23" height="21" viewBox="0 0 28 26" fill="none" xmlns="http://www.w3.org/2000/svg">
<path d="M26.5213 0.339844L16.041 8.23978L17.9791 3.57893L26.5213 0.339844Z" fill="#E2761B" stroke="#E2761B" strokeWidth="0.143401" strokeLinecap="round" strokeLinejoin="round"/>
<path d="M2.32617 0.339844L12.7222 8.31461L10.8789 3.57893L2.32617 0.339844Z" fill="#E4761B" stroke="#E4761B" strokeWidth="0.143401" strokeLinecap="round" strokeLinejoin="round"/>
<path d="M22.7502 18.6519L19.959 22.992L25.9312 24.6597L27.648 18.7481L22.7502 18.6519Z" fill="#E4761B" stroke="#E4761B" strokeWidth="0.143401" strokeLinecap="round" strokeLinejoin="round"/>
<path d="M1.2207 18.7481L2.92704 24.6597L8.89923 22.992L6.108 18.6519L1.2207 18.7481Z" fill="#E4761B" stroke="#E4761B" strokeWidth="0.143401" strokeLinecap="round" strokeLinejoin="round"/>
<path d="M8.56167 11.3185L6.89746 13.8734L12.8275 14.1407L12.6169 7.67322L8.56167 11.3185Z" fill="#E4761B" stroke="#E4761B" strokeWidth="0.143401" strokeLinecap="round" strokeLinejoin="round"/>
<path d="M20.2848 11.3185L16.177 7.59839L16.04 14.1407L21.9596 13.8734L20.2848 11.3185Z" fill="#E4761B" stroke="#E4761B" strokeWidth="0.143401" strokeLinecap="round" strokeLinejoin="round"/>
<path d="M8.89941 22.9921L12.4596 21.2282L9.38393 18.7909L8.89941 22.9921Z" fill="#E4761B" stroke="#E4761B" strokeWidth="0.143401" strokeLinecap="round" strokeLinejoin="round"/>
<path d="M16.3877 21.2282L19.9584 22.9921L19.4633 18.7909L16.3877 21.2282Z" fill="#E4761B" stroke="#E4761B" strokeWidth="0.143401" strokeLinecap="round" strokeLinejoin="round"/>
<path d="M19.9593 22.992L16.3887 21.2281L16.6731 23.5906L16.6415 24.5848L19.9593 22.992Z" fill="#D7C1B3" stroke="#D7C1B3" strokeWidth="0.143401" strokeLinecap="round" strokeLinejoin="round"/>
<path d="M8.89941 22.992L12.2173 24.5848L12.1962 23.5906L12.4596 21.2281L8.89941 22.992Z" fill="#D7C1B3" stroke="#D7C1B3" strokeWidth="0.143401" strokeLinecap="round" strokeLinejoin="round"/>
<path d="M12.2701 17.2301L9.2998 16.3428L11.3959 15.3701L12.2701 17.2301Z" fill="#233447" stroke="#233447" strokeWidth="0.143401" strokeLinecap="round" strokeLinejoin="round"/>
<path d="M16.5781 17.2301L17.4524 15.3701L19.559 16.3428L16.5781 17.2301Z" fill="#233447" stroke="#233447" strokeWidth="0.143401" strokeLinecap="round" strokeLinejoin="round"/>
<path d="M8.89963 22.9923L9.40521 18.6521L6.1084 18.7483L8.89963 22.9923Z" fill="#CD6116" stroke="#CD6116" strokeWidth="0.143401" strokeLinecap="round" strokeLinejoin="round"/>
<path d="M19.4541 18.6521L19.9597 22.9923L22.7509 18.7483L19.4541 18.6521Z" fill="#CD6116" stroke="#CD6116" strokeWidth="0.143401" strokeLinecap="round" strokeLinejoin="round"/>
<path d="M21.9605 13.8737L16.041 14.1409L16.5887 17.2303L17.463 15.3703L19.5696 16.3431L21.9605 13.8737Z" fill="#CD6116" stroke="#CD6116" strokeWidth="0.143401" strokeLinecap="round" strokeLinejoin="round"/>
<path d="M9.29995 16.3431L11.4065 15.3703L12.2702 17.2303L12.8285 14.1409L6.89844 13.8737L9.29995 16.3431Z" fill="#CD6116" stroke="#CD6116" strokeWidth="0.143401" strokeLinecap="round" strokeLinejoin="round"/>
<path d="M6.89844 13.8735L9.38422 18.7909L9.29995 16.3429L6.89844 13.8735Z" fill="#E4751F" stroke="#E4751F" strokeWidth="0.143401" strokeLinecap="round" strokeLinejoin="round"/>
<path d="M19.5692 16.3431L19.4639 18.7911L21.9602 13.8737L19.5692 16.3431Z" fill="#E4751F" stroke="#E4751F" strokeWidth="0.143401" strokeLinecap="round" strokeLinejoin="round"/>
<path d="M12.8288 14.1409L12.2705 17.2304L12.9657 20.8757L13.1237 16.0758L12.8288 14.1409Z" fill="#E4751F" stroke="#E4751F" strokeWidth="0.143401" strokeLinecap="round" strokeLinejoin="round"/>
<path d="M16.0412 14.1409L15.7568 16.0651L15.8832 20.8757L16.5889 17.2304L16.0412 14.1409Z" fill="#E4751F" stroke="#E4751F" strokeWidth="0.143401" strokeLinecap="round" strokeLinejoin="round"/>
<path d="M16.5885 17.2301L15.8828 20.8754L16.3884 21.2282L19.464 18.7909L19.5693 16.3428L16.5885 17.2301Z" fill="#F6851B" stroke="#F6851B" strokeWidth="0.143401" strokeLinecap="round" strokeLinejoin="round"/>
<path d="M9.2998 16.3428L9.38407 18.7909L12.4597 21.2282L12.9653 20.8754L12.2701 17.2301L9.2998 16.3428Z" fill="#F6851B" stroke="#F6851B" strokeWidth="0.143401" strokeLinecap="round" strokeLinejoin="round"/>
<path d="M16.6411 24.5848L16.6727 23.5906L16.4094 23.3555H12.4385L12.1962 23.5906L12.2173 24.5848L8.89941 22.992L10.058 23.9541L12.4069 25.6111H16.441L18.8004 23.9541L19.959 22.992L16.6411 24.5848Z" fill="#C0AD9E" stroke="#C0AD9E" strokeWidth="0.143401" strokeLinecap="round" strokeLinejoin="round"/>
<path d="M16.3884 21.2282L15.8828 20.8754H12.9652L12.4596 21.2282L12.1963 23.5907L12.4385 23.3555H16.4095L16.6728 23.5907L16.3884 21.2282Z" fill="#161616" stroke="#161616" strokeWidth="0.143401" strokeLinecap="round" strokeLinejoin="round"/>
<path d="M26.9638 8.7529L27.8591 4.39137L26.5214 0.339844L16.3887 7.97253L20.2859 11.3185L25.7946 12.9541L27.0164 11.5109L26.4898 11.1261L27.3324 10.3457L26.6794 9.8326L27.522 9.18051L26.9638 8.7529Z" fill="#763D16" stroke="#763D16" strokeWidth="0.143401" strokeLinecap="round" strokeLinejoin="round"/>
<path d="M1 4.39137L1.8953 8.7529L1.32652 9.18051L2.16916 9.8326L1.52665 10.3457L2.36928 11.1261L1.84264 11.5109L3.05393 12.9541L8.56266 11.3185L12.4599 7.97253L2.32715 0.339844L1 4.39137Z" fill="#763D16" stroke="#763D16" strokeWidth="0.143401" strokeLinecap="round" strokeLinejoin="round"/>
<path d="M25.7942 12.9541L20.2854 11.3185L21.9602 13.8735L19.4639 18.7909L22.7501 18.7481H27.648L25.7942 12.9541Z" fill="#F6851B" stroke="#F6851B" strokeWidth="0.143401" strokeLinecap="round" strokeLinejoin="round"/>
<path d="M8.56217 11.3185L3.05344 12.9541L1.2207 18.7481H6.108L9.38375 18.7909L6.89797 13.8735L8.56217 11.3185Z" fill="#F6851B" stroke="#F6851B" strokeWidth="0.143401" strokeLinecap="round" strokeLinejoin="round"/>
<path d="M16.041 14.1407L16.3886 7.97252L17.9896 3.57892H10.8799L12.4598 7.97252L12.8285 14.1407L12.9549 16.0863L12.9654 20.8754H15.883L15.9041 16.0863L16.041 14.1407Z" fill="#F6851B" stroke="#F6851B" strokeWidth="0.143401" strokeLinecap="round" strokeLinejoin="round"/>
</svg>
