<svg width="17" height="18" viewBox="0 0 17 18" fill="none" xmlns="http://www.w3.org/2000/svg">
<path fillRule="evenodd" clipRule="evenodd" d="M7.85072 1.9298C4.80435 1.9298 2.33477 4.67893 2.33477 8.07015C2.33477 11.4614 4.80435 14.2105 7.85072 14.2105C9.33688 14.2105 10.6858 13.5562 11.6776 12.4923C11.6983 12.4623 11.721 12.4335 11.7457 12.406C11.7704 12.3786 11.7963 12.3533 11.8232 12.3302C12.7789 11.2261 13.3667 9.72454 13.3667 8.07015C13.3667 4.67893 10.8971 1.9298 7.85072 1.9298ZM13.3918 12.9979C14.3623 11.6474 14.9427 9.9342 14.9427 8.07015C14.9427 3.71001 11.7675 0.175415 7.85072 0.175415C3.93396 0.175415 0.758789 3.71001 0.758789 8.07015C0.758789 12.4303 3.93396 15.9649 7.85072 15.9649C9.52522 15.9649 11.0642 15.3189 12.2774 14.2385L15.1735 17.4624C15.4812 17.8049 15.9801 17.8049 16.2879 17.4624C16.5956 17.1198 16.5956 16.5644 16.2879 16.2218L13.3918 12.9979Z" fill="#212121"/>
</svg>
